<svg width="1024" height="1024" viewBox="0 0 1024 1024" xmlns="http://www.w3.org/2000/svg">
  <defs>
    <linearGradient id="bg" x1="512" y1="112" x2="512" y2="912" gradientUnits="userSpaceOnUse">
      <stop offset="0" stop-color="#26232c"/><stop offset="1" stop-color="#121116"/>
    </linearGradient>
    <linearGradient id="sheen" x1="512" y1="112" x2="512" y2="520" gradientUnits="userSpaceOnUse">
      <stop offset="0" stop-color="#ffffff" stop-opacity="0.07"/><stop offset="1" stop-color="#ffffff" stop-opacity="0"/>
    </linearGradient>
    <filter id="gemshadow" x="-30%" y="-30%" width="160%" height="160%">
      <feDropShadow dx="0" dy="14" stdDeviation="22" flood-color="#1a103f" flood-opacity="0.55"/>
    </filter>
    <filter id="drop" x="-20%" y="-20%" width="140%" height="140%">
      <feDropShadow dx="0" dy="18" stdDeviation="26" flood-color="#000000" flood-opacity="0.42"/>
    </filter>
  </defs>
  <g filter="url(#drop)"><rect x="112" y="112" width="800" height="800" rx="180" fill="url(#bg)"/></g>
  <rect x="112" y="112" width="800" height="800" rx="180" fill="url(#sheen)"/>

  <!-- brilliant-cut gem: table(top) + crown facets + pavilion point, lit from top-left -->
  <g filter="url(#gemshadow)">
    <path d="M422.9 344.6 L601.1 344.6 L512 476.9 Z" fill="#d4daff"/>
    <path d="M422.9 344.6 L312.2 476.9 L512 476.9 Z" fill="#b0b8ff"/>
    <path d="M601.1 344.6 L711.8 476.9 L512 476.9 Z" fill="#8b92fb"/>
    <path d="M312.2 476.9 L512 733.4 L512 476.9 Z" fill="#6d6cf4"/>
    <path d="M711.8 476.9 L512 476.9 L512 733.4 Z" fill="#5049df"/>
    <g stroke="#100c20" stroke-opacity="0.26" stroke-width="7" stroke-linejoin="round" fill="none">
      <path d="M422.9 344.6 L512 476.9 L601.1 344.6"/>
      <path d="M312.2 476.9 L512 476.9 L711.8 476.9"/>
      <path d="M512 476.9 L512 733.4"/>
    </g>
    <path d="M422.9 344.6 L601.1 344.6" stroke="#ffffff" stroke-opacity="0.45" stroke-width="6" stroke-linecap="round"/>
    <path d="M422.9 344.6 L312.2 476.9" stroke="#ffffff" stroke-opacity="0.28" stroke-width="6" stroke-linecap="round"/>
    <path d="M455.3 363.5 L495.8 363.5 L476.9 404 Z" fill="#ffffff" fill-opacity="0.5"/>
  </g>
  <rect x="113" y="113" width="798" height="798" rx="179" fill="none" stroke="#ffffff" stroke-opacity="0.06" stroke-width="2"/>
</svg>
